<svg xmlns="http://www.w3.org/2000/svg" width="331" height="249" viewBox="0 0 331 249" version="1.1"><path d="M 99.500 24.083 C 58.991 29.517, 25.314 73.444, 16.439 132.427 C 14.255 146.938, 14.460 169.615, 16.875 180.638 C 21.564 202.043, 31.361 216.829, 46.924 225.988 C 56.728 231.757, 63.533 233.474, 76.500 233.448 C 88.811 233.423, 94.408 232.022, 104.628 226.406 C 120.045 217.934, 137.878 195.863, 157.474 161 C 163.669 149.978, 166.690 146, 168.864 146 C 171.596 146, 174.956 150.333, 183.987 165.500 C 209.270 207.965, 225.523 225.072, 246.720 231.535 C 259.742 235.505, 276.546 234.080, 288.708 227.975 C 318.360 213.090, 329.977 170.918, 318.866 118.500 C 316.371 106.731, 310.086 88.197, 305.450 78.939 C 283.132 34.366, 243.489 13.574, 209.356 28.541 C 201.698 31.898, 190.276 40.021, 183.539 46.898 C 180.261 50.246, 176.081 53.478, 174.252 54.082 C 171.266 55.067, 170.544 54.894, 167.212 52.391 C 165.171 50.857, 161.584 47.798, 159.242 45.594 C 154.437 41.073, 144.259 33.749, 138.993 31.023 C 128.235 25.454, 111.370 22.491, 99.500 24.083 M 91.437 28.025 C 69.708 32.338, 48.345 52.117, 35.020 80.257 C 24.025 103.480, 18.884 126.527, 18.857 152.724 C 18.834 174.889, 23.270 190.756, 32.770 202.493 C 47.262 220.395, 72.628 225.722, 94 215.351 C 109.875 207.648, 124.312 189.179, 150.430 143.160 C 158.023 129.781, 164.551 119.210, 164.938 119.668 C 165.324 120.125, 173.158 133.100, 182.346 148.500 C 212.168 198.483, 224.022 212.117, 242.850 218.092 C 252.219 221.064, 266.159 221.050, 274.917 218.058 C 303.814 208.188, 315.586 172.627, 306.942 121.322 C 303.464 100.678, 294.579 77.707, 283.918 61.795 C 277.058 51.557, 263.683 39.098, 254.322 34.229 C 226.151 19.572, 200.384 27.363, 175.704 58 C 172.381 62.125, 169.282 65.933, 168.818 66.463 C 168.310 67.042, 166.694 65.849, 164.755 63.463 C 154.344 50.650, 141.031 39.064, 130.764 33.881 C 119.044 27.965, 103.445 25.642, 91.437 28.025 M 220.223 53.090 C 213.403 54.389, 206.416 58.830, 199.145 66.484 C 192.471 73.510, 183 85.921, 183 87.640 C 183 88.128, 184.557 90.839, 186.460 93.665 C 188.363 96.490, 195.847 108.634, 203.090 120.651 C 232.973 170.224, 244.536 185.412, 254.244 187.840 C 265.576 190.673, 275.388 184.869, 279.132 173.118 C 280.851 167.719, 281.378 143.050, 280.007 132.064 C 277.490 111.892, 270.019 89.465, 261.496 76.500 C 250.094 59.156, 234.577 50.355, 220.223 53.090 M 93.882 60.319 C 83.489 64.209, 73.499 74.497, 66.070 88.960 C 55.405 109.721, 50.505 131.653, 51.203 155.500 C 51.551 167.387, 51.962 170.291, 53.926 174.742 C 60.034 188.582, 74.046 192.568, 86.491 184.006 C 94.690 178.365, 101.274 169.480, 127.620 128.500 C 137.520 113.100, 146.399 99.314, 147.350 97.865 C 149.077 95.234, 149.069 95.215, 143.115 87.313 C 134.938 76.462, 123.031 65.361, 116.226 62.246 C 109.553 59.191, 99.267 58.304, 93.882 60.319 M 222.731 68.552 C 217.093 70.348, 205.168 81.020, 202.488 86.666 C 199.380 93.216, 200.624 96.852, 213.066 117.587 C 235.592 155.127, 248.008 173.647, 253.904 178.500 C 262.371 185.470, 270.167 184.203, 274.338 175.179 C 276.258 171.025, 276.495 168.818, 276.459 155.500 C 276.395 132.176, 272.442 113.816, 263.530 95.451 C 252.852 73.446, 238.034 63.677, 222.731 68.552 M 99.748 75.427 C 83.343 81.281, 68.685 111.058, 64.952 146.112 C 62.490 169.237, 67.290 183, 77.819 183 C 87.923 183, 94.885 175.606, 116.931 141.460 C 120.468 135.982, 126.178 127.149, 129.620 121.830 C 141.668 103.213, 142.333 100.252, 136.250 92.295 C 124.838 77.365, 111.539 71.219, 99.748 75.427" stroke="none" fill="#042758" fill-rule="evenodd"/><path d="M 91.437 28.025 C 69.708 32.338, 48.345 52.117, 35.020 80.257 C 24.025 103.480, 18.884 126.527, 18.857 152.724 C 18.834 174.889, 23.270 190.756, 32.770 202.493 C 47.262 220.395, 72.628 225.722, 94 215.351 C 109.875 207.648, 124.312 189.179, 150.430 143.160 C 158.023 129.781, 164.551 119.210, 164.938 119.668 C 165.324 120.125, 173.158 133.100, 182.346 148.500 C 212.168 198.483, 224.022 212.117, 242.850 218.092 C 252.219 221.064, 266.159 221.050, 274.917 218.058 C 303.814 208.188, 315.586 172.627, 306.942 121.322 C 303.464 100.678, 294.579 77.707, 283.918 61.795 C 277.058 51.557, 263.683 39.098, 254.322 34.229 C 226.151 19.572, 200.384 27.363, 175.704 58 C 172.381 62.125, 169.282 65.933, 168.818 66.463 C 168.310 67.042, 166.694 65.849, 164.755 63.463 C 154.344 50.650, 141.031 39.064, 130.764 33.881 C 119.044 27.965, 103.445 25.642, 91.437 28.025 M 220.223 53.090 C 213.403 54.389, 206.416 58.830, 199.145 66.484 C 192.471 73.510, 183 85.921, 183 87.640 C 183 88.128, 184.557 90.839, 186.460 93.665 C 188.363 96.490, 195.847 108.634, 203.090 120.651 C 232.973 170.224, 244.536 185.412, 254.244 187.840 C 265.576 190.673, 275.388 184.869, 279.132 173.118 C 280.851 167.719, 281.378 143.050, 280.007 132.064 C 277.490 111.892, 270.019 89.465, 261.496 76.500 C 250.094 59.156, 234.577 50.355, 220.223 53.090 M 93.882 60.319 C 83.489 64.209, 73.499 74.497, 66.070 88.960 C 55.405 109.721, 50.505 131.653, 51.203 155.500 C 51.551 167.387, 51.962 170.291, 53.926 174.742 C 60.034 188.582, 74.046 192.568, 86.491 184.006 C 94.690 178.365, 101.274 169.480, 127.620 128.500 C 137.520 113.100, 146.399 99.314, 147.350 97.865 C 149.077 95.234, 149.069 95.215, 143.115 87.313 C 134.938 76.462, 123.031 65.361, 116.226 62.246 C 109.553 59.191, 99.267 58.304, 93.882 60.319" stroke="none" fill="#0472f1" fill-rule="evenodd"/></svg>